<svg xmlns="http://www.w3.org/2000/svg" viewBox="0 0 128 128" width="128" height="128">
  <rect width="128" height="128" rx="16" fill="#0f172a"/>
  <rect x="8" y="6" width="112" height="28" rx="10" fill="rgba(30,41,59,0.45)" stroke="rgba(51,65,85,0.5)" stroke-width="0.5"/>
  <text x="16" y="24" font-size="8" font-weight="700" fill="#f1f5f9" font-family="sans-serif">📌 Notes</text>
  <rect x="60" y="15" width="44" height="10" rx="5" fill="#38bdf8"/>
  <text x="82" y="23" font-size="5.5" fill="#fff" text-anchor="middle" font-weight="700" font-family="sans-serif">+ Add</text>
  <g transform="translate(12,48)">
    <rect x="0" y="0" width="48" height="56" rx="8" fill="#fef08a" transform="rotate(-1)"/>
    <rect x="6" y="6" width="36" height="4" rx="2" fill="rgba(0,0,0,0.08)"/>
    <circle cx="12" cy="8" r="3" fill="#bbf7d0"/>
    <circle cx="20" cy="8" r="3" fill="#fbcfe8"/>
    <circle cx="28" cy="8" r="3" fill="#bfdbfe"/>
    <rect x="32" y="14" width="10" height="3" rx="1.5" fill="rgba(0,0,0,0.08)"/>
    <rect x="6" y="16" width="36" height="3" rx="1.5" fill="rgba(0,0,0,0.12)"/>
    <rect x="6" y="23" width="28" height="3" rx="1.5" fill="rgba(0,0,0,0.08)"/>
    <rect x="6" y="30" width="32" height="3" rx="1.5" fill="rgba(0,0,0,0.08)"/>
  </g>
  <g transform="translate(68,44)">
    <rect x="0" y="0" width="48" height="52" rx="8" fill="#bbf7d0" transform="rotate(1.5)"/>
    <rect x="6" y="6" width="36" height="4" rx="2" fill="rgba(0,0,0,0.06)"/>
    <rect x="32" y="14" width="10" height="3" rx="1.5" fill="rgba(0,0,0,0.06)"/>
    <rect x="6" y="16" width="32" height="3" rx="1.5" fill="rgba(0,0,0,0.1)"/>
    <rect x="6" y="23" width="24" height="3" rx="1.5" fill="rgba(0,0,0,0.06)"/>
    <rect x="6" y="30" width="30" height="3" rx="1.5" fill="rgba(0,0,0,0.06)"/>
  </g>
  <g transform="translate(40,92)">
    <rect x="0" y="0" width="48" height="28" rx="8" fill="#fbcfe8" transform="rotate(-0.5)"/>
    <rect x="6" y="6" width="36" height="4" rx="2" fill="rgba(0,0,0,0.06)"/>
    <rect x="32" y="14" width="10" height="3" rx="1.5" fill="rgba(0,0,0,0.06)"/>
    <rect x="6" y="14" width="20" height="3" rx="1.5" fill="rgba(0,0,0,0.1)"/>
    <rect x="6" y="20" width="28" height="3" rx="1.5" fill="rgba(0,0,0,0.06)"/>
  </g>
</svg>
